<svg xmlns="http://www.w3.org/2000/svg" fill="#dc2626" xmlns:xlink="http://www.w3.org/1999/xlink" id="Layer_1" x="0px" y="0px" viewBox="0 0 512 512" style="enable-background:new 0 0 512 512;" xml:space="preserve"><g>	<g>		<g>			<path d="M272.168,479.663c4.465,0,8.084-3.62,8.084-8.084v-32.337c0-4.465-3.62-8.084-8.084-8.084    c-4.465,0-8.084,3.62-8.084,8.084v32.337C264.084,476.044,267.704,479.663,272.168,479.663z"></path>			<path d="M358.4,479.663c4.465,0,8.084-3.62,8.084-8.084v-32.337c0-4.465-3.62-8.084-8.084-8.084c-4.465,0-8.084,3.62-8.084,8.084    v32.337C350.316,476.044,353.935,479.663,358.4,479.663z"></path>			<path d="M315.284,479.663c4.465,0,8.084-3.62,8.084-8.084v-32.337c0-4.465-3.62-8.084-8.084-8.084    c-4.465,0-8.084,3.62-8.084,8.084v32.337C307.2,476.044,310.82,479.663,315.284,479.663z"></path>			<path d="M460.8,32.337H210.189v-2.695C210.189,13.297,196.893,0,180.547,0H94.316C77.971,0,64.674,13.297,64.674,29.642v2.695    H51.2c-28.231,0-51.2,22.969-51.2,51.2v323.368c0,28.231,22.969,51.2,51.2,51.2h161.059l5.221,17.407    C224.029,497.336,243.736,512,266.521,512h97.526c22.785,0,42.493-14.664,49.04-36.488l5.222-17.407H460.8    c28.231,0,51.2-22.969,51.2-51.2V83.537C512,55.306,489.031,32.337,460.8,32.337z M80.842,29.642    c0-7.43,6.044-13.474,13.474-13.474h86.232c7.43,0,13.474,6.044,13.474,13.474v67.368H80.842V29.642z M16.168,83.537    c0-19.316,15.716-35.032,35.032-35.032h13.474v48.505H16.168V83.537z M404.606,447.517c-0.039,0.117-0.074,0.236-0.107,0.355    l-6.898,22.995c-4.48,14.932-17.964,24.965-33.554,24.965h-97.526c-15.59,0-29.074-10.033-33.554-24.964l-6.898-22.995    c-0.033-0.12-0.068-0.238-0.107-0.355l-9.758-32.529h198.16L404.606,447.517z M205.526,398.821c-0.122-0.003-0.246-0.003-0.369,0    h-3.053c-7.43,0-13.474-6.044-13.474-13.474s6.044-13.474,13.474-13.474h61.979v26.947H205.526z M280.253,398.821v-26.947    h148.211c7.43,0,13.474,6.044,13.474,13.474s-6.044,13.474-13.474,13.474h-3.053c-0.123-0.003-0.247-0.003-0.369,0H280.253z     M280.253,355.705v-35.032c0-19.316,15.716-35.032,35.032-35.032c19.316,0,35.032,15.716,35.032,35.032v35.032H280.253z     M495.832,406.905c0,19.316-15.716,35.032-35.032,35.032h-37.64l8.124-27.081c15.027-1.425,26.821-14.115,26.821-29.508    c0-16.345-13.297-29.642-29.642-29.642h-61.979v-35.032c0-28.231-22.969-51.2-51.2-51.2c-28.231,0-51.2,22.969-51.2,51.2v35.032    h-61.979c-16.345,0-29.642,13.297-29.642,29.642c0,15.393,11.794,28.083,26.821,29.508l8.124,27.081H51.2    c-19.316,0-35.032-15.716-35.032-35.032V113.179h479.663V406.905z M495.832,97.011H210.189V48.505H460.8    c19.316,0,35.032,15.716,35.032,35.032V97.011z"></path>			<path d="M417.684,64.135c-4.465,0-8.084,3.62-8.084,8.084v1.078c0,4.465,3.62,8.084,8.084,8.084s8.084-3.62,8.084-8.084v-1.078    C425.768,67.754,422.149,64.135,417.684,64.135z"></path>			<path d="M450.021,64.135c-4.465,0-8.084,3.62-8.084,8.084v1.078c0,4.465,3.62,8.084,8.084,8.084c4.465,0,8.084-3.62,8.084-8.084    v-1.078C458.105,67.754,454.486,64.135,450.021,64.135z"></path>			<path d="M211.806,167.074h237.137c4.465,0,8.084-3.62,8.084-8.084c0-4.465-3.62-8.084-8.084-8.084H211.806    c-4.465,0-8.084,3.62-8.084,8.084C203.722,163.454,207.342,167.074,211.806,167.074z"></path>			<path d="M385.347,64.135c-4.465,0-8.084,3.62-8.084,8.084v1.078c0,4.465,3.62,8.084,8.084,8.084c4.465,0,8.084-3.62,8.084-8.084    v-1.078C393.432,67.754,389.812,64.135,385.347,64.135z"></path>			<path d="M82.459,404.211h64.674c4.465,0,8.084-3.62,8.084-8.084c0-4.465-3.62-8.084-8.084-8.084H82.459    c-7.43,0-13.474-6.044-13.474-13.474V234.442c0-7.43,6.044-13.474,13.474-13.474h344.926c7.43,0,13.474,6.044,13.474,13.474    v97.011c0,4.465,3.62,8.084,8.084,8.084c4.465,0,8.084-3.62,8.084-8.084v-97.011c0-16.345-13.297-29.642-29.642-29.642H82.459    c-16.345,0-29.642,13.297-29.642,29.642v140.126C52.817,390.914,66.114,404.211,82.459,404.211z"></path>			<path d="M60.901,167.074h75.453c4.465,0,8.084-3.62,8.084-8.084c0-4.465-3.62-8.084-8.084-8.084H60.901    c-4.465,0-8.084,3.62-8.084,8.084C52.817,163.454,56.436,167.074,60.901,167.074z"></path>		</g>	</g></g><g></g><g></g><g></g><g></g><g></g><g></g><g></g><g></g><g></g><g></g><g></g><g></g><g></g><g></g><g></g></svg>