<svg xmlns="http://www.w3.org/2000/svg" width="99" height="99" viewBox="0 0 99 99" fill="none"><path d="M29.8235 49.3206C29.8235 60.0901 38.554 68.8206 49.3235 68.8206C60.0931 68.8206 68.8235 60.0901 68.8235 49.3206C68.8235 38.551 60.0931 29.8206 49.3235 29.8206C38.554 29.8206 29.8235 38.551 29.8235 49.3206Z" fill="#CC313A" fill-opacity="0.5"></path><path d="M16.2 49.1C16.2 30.9 31 16.1999 49.1 16.1999C67.3 16.2 82 31 82 49.1C82 67.3 67.2 82 49.1 82C31 82.1 16.2 67.3 16.2 49.1ZM79.3 49.1C79.3 32.5 65.8 19 49.2 19C32.6 19 19.1 32.5 19.1 49.1C19.1 65.7 32.6 79.1999 49.2 79.1999C65.7 79.3 79.3 65.8 79.3 49.1Z" fill="#CC313A" fill-opacity="0.3"></path><path d="M2.83713e-05 49.1C2.95559e-05 22 22 -3.33081e-06 49.1 -2.14623e-06C76.2 -9.61649e-07 98.2 22 98.2 49.1C98.2 76.2 76.2 98.2 49.1 98.2C22.1 98.2 2.71868e-05 76.2 2.83713e-05 49.1ZM95.4 49.1C95.4 23.6 74.6 2.79999 49.1 2.79999C23.6 2.79998 2.80002 23.6 2.80002 49.1C2.80002 74.6 23.6 95.4 49.1 95.4C74.6 95.4 95.4 74.7 95.4 49.1Z" fill="#CC313A" fill-opacity="0.2"></path></svg>