<svg xmlns="http://www.w3.org/2000/svg" width="225" height="225" viewBox="0 0 225 225" fill="none"><g clip-path="url(#clip0_8_5)"><path d="M112.5 0C82.6631 0 54.0483 11.8526 32.9505 32.9505C11.8526 54.0483 0 82.6631 0 112.5C0 142.337 11.8526 170.952 32.9505 192.05C54.0483 213.147 82.6631 225 112.5 225H225V112.5C224.997 82.6641 213.143 54.051 192.046 32.9538C170.949 11.8566 142.336 0.00298315 112.5 0V0ZM168.75 168.75H112.5C101.375 168.75 90.4994 165.451 81.2492 159.27C71.9989 153.089 64.7892 144.304 60.5318 134.026C56.2743 123.748 55.1604 112.438 57.3308 101.526C59.5012 90.6147 64.8585 80.5919 72.7252 72.7252C80.5919 64.8585 90.6147 59.5012 101.526 57.3308C112.438 55.1604 123.748 56.2743 134.026 60.5318C144.304 64.7892 153.089 71.9989 159.27 81.2492C165.451 90.4994 168.75 101.375 168.75 112.5V168.75Z" fill="#F2A89B"></path></g><defs><clipPath id="clip0_8_5"><rect width="225" height="225" fill="white"></rect></clipPath></defs></svg>