<svg xmlns="http://www.w3.org/2000/svg" width="100" height="100" viewBox="0 0 100 100" fill="none"><g clip-path="url(#clip0_118_20)"><path d="M50 50H25C20.0555 50 15.222 48.5338 11.1108 45.7868C6.99953 43.0397 3.79521 39.1353 1.90302 34.5671C0.0108321 29.9989 -0.484251 24.9723 0.480379 20.1228C1.44501 15.2732 3.82603 10.8187 7.32234 7.32234C10.8187 3.82603 15.2732 1.44501 20.1228 0.480379C24.9723 -0.484251 29.9989 0.0108321 34.5671 1.90302C39.1353 3.79521 43.0397 6.99953 45.7868 11.1108C48.5338 15.222 50 20.0555 50 25V50Z" fill="#0E448C"></path><path d="M50 50V75C50 79.9445 48.5338 84.778 45.7868 88.8893C43.0397 93.0005 39.1353 96.2048 34.5671 98.097C29.9989 99.9892 24.9723 100.484 20.1228 99.5196C15.2732 98.555 10.8187 96.174 7.32234 92.6777C3.82603 89.1814 1.44501 84.7268 0.480379 79.8773C-0.484251 75.0277 0.0108321 70.0011 1.90302 65.4329C3.79521 60.8648 6.99953 56.9603 11.1108 54.2133C15.222 51.4662 20.0555 50 25 50H50Z" fill="#FFD313"></path><path d="M100 50H75C70.0555 50 65.222 48.5338 61.1108 45.7868C56.9995 43.0397 53.7952 39.1353 51.903 34.5671C50.0108 29.9989 49.5157 24.9723 50.4804 20.1228C51.445 15.2732 53.826 10.8187 57.3223 7.32234C60.8187 3.82603 65.2732 1.44501 70.1228 0.480379C74.9723 -0.484251 79.9989 0.0108321 84.5671 1.90302C89.1353 3.79521 93.0397 6.99953 95.7868 11.1108C98.5338 15.222 100 20.0555 100 25V50Z" fill="#08A887"></path><path d="M100 100H75C70.0555 100 65.222 98.5338 61.1108 95.7868C56.9995 93.0397 53.7952 89.1353 51.903 84.5671C50.0108 79.9989 49.5157 74.9723 50.4804 70.1228C51.445 65.2732 53.826 60.8187 57.3223 57.3223C60.8187 53.826 65.2732 51.445 70.1228 50.4804C74.9723 49.5157 79.9989 50.0108 84.5671 51.903C89.1353 53.7952 93.0397 56.9995 95.7868 61.1108C98.5338 65.222 100 70.0555 100 75V100Z" fill="#F61710"></path></g><g clip-path="url(#clip1_118_20)"><path d="M50 50H25C20.0555 50 15.222 48.5338 11.1108 45.7868C6.99953 43.0397 3.79521 39.1352 1.90302 34.5671C0.0108321 29.9989 -0.484251 24.9723 0.480379 20.1228C1.44501 15.2732 3.82603 10.8187 7.32234 7.32234C10.8187 3.82603 15.2732 1.44501 20.1228 0.480379C24.9723 -0.484251 29.9989 0.0108321 34.5671 1.90302C39.1352 3.79521 43.0397 6.99953 45.7868 11.1108C48.5338 15.222 50 20.0555 50 25V50Z" fill="#EE4124"></path><path d="M50 50V75C50 79.9445 48.5338 84.778 45.7868 88.8893C43.0397 93.0005 39.1352 96.2048 34.5671 98.097C29.9989 99.9892 24.9723 100.484 20.1228 99.5196C15.2732 98.555 10.8187 96.174 7.32234 92.6777C3.82603 89.1814 1.44501 84.7268 0.480379 79.8773C-0.484251 75.0277 0.0108321 70.0011 1.90302 65.4329C3.79521 60.8648 6.99953 56.9603 11.1108 54.2133C15.222 51.4662 20.0555 50 25 50H50Z" fill="#9C1C23"></path><path d="M100 50H75C70.0555 50 65.222 48.5338 61.1108 45.7868C56.9995 43.0397 53.7952 39.1352 51.903 34.5671C50.0108 29.9989 49.5157 24.9723 50.4804 20.1228C51.445 15.2732 53.826 10.8187 57.3223 7.32234C60.8187 3.82603 65.2732 1.44501 70.1228 0.480379C74.9723 -0.484251 79.9989 0.0108321 84.5671 1.90302C89.1352 3.79521 93.0397 6.99953 95.7868 11.1108C98.5338 15.222 100 20.0555 100 25V50Z" fill="#9C1C23"></path><path d="M100 100H75C70.0555 100 65.222 98.5338 61.1108 95.7868C56.9995 93.0397 53.7952 89.1352 51.903 84.5671C50.0108 79.9989 49.5157 74.9723 50.4804 70.1228C51.445 65.2732 53.826 60.8187 57.3223 57.3223C60.8187 53.826 65.2732 51.445 70.1228 50.4804C74.9723 49.5157 79.9989 50.0108 84.5671 51.903C89.1352 53.7952 93.0397 56.9995 95.7868 61.1108C98.5338 65.222 100 70.0555 100 75V100Z" fill="#EE4124"></path></g><defs><clipPath id="clip0_118_20"><rect width="100" height="100" fill="white"></rect></clipPath><clipPath id="clip1_118_20"><rect width="100" height="100" fill="white"></rect></clipPath></defs></svg>