<svg xmlns="http://www.w3.org/2000/svg" width="100" height="100" viewBox="0 0 100 100" fill="none"><g clip-path="url(#clip0_118_21)"><path d="M100 0V50C100 59.8891 97.0676 69.5561 91.5735 77.7785C86.0794 86.001 78.2705 92.4096 69.1342 96.194C59.9979 99.9784 49.9446 100.969 40.2455 99.0393C30.5465 97.11 21.6373 92.348 14.6447 85.3553C7.65206 78.3627 2.89002 69.4536 0.960759 59.7545C-0.968503 50.0555 0.0216641 40.0021 3.80605 30.8658C7.59043 21.7295 13.9991 13.9206 22.2215 8.42652C30.444 2.93245 40.111 0 50 0L100 0Z" fill="#9C1C23"></path><path d="M0 100L0 50C0 40.111 2.93245 30.444 8.42652 22.2215C13.9206 13.9991 21.7295 7.59043 30.8658 3.80605C40.0021 0.0216641 50.0555 -0.968503 59.7545 0.960759C69.4536 2.89002 78.3627 7.65206 85.3553 14.6447C92.348 21.6373 97.11 30.5465 99.0393 40.2455C100.969 49.9446 99.9784 59.9979 96.194 69.1342C92.4096 78.2705 86.001 86.0794 77.7785 91.5735C69.5561 97.0676 59.8891 100 50 100H0Z" fill="#EE4124"></path></g><defs><clipPath id="clip0_118_21"><rect width="100" height="100" fill="white"></rect></clipPath></defs></svg>