<svg xmlns="http://www.w3.org/2000/svg" width="100" height="100" viewBox="0 0 100 100" fill="none"><g clip-path="url(#clip0_118_44)"><path d="M100 100H50C40.111 100 30.444 97.0676 22.2215 91.5735C13.9991 86.0794 7.59043 78.2705 3.80605 69.1342C0.0216641 59.9979 -0.968503 49.9446 0.960759 40.2455C2.89002 30.5465 7.65206 21.6373 14.6447 14.6447C21.6373 7.65206 30.5465 2.89002 40.2455 0.960759C49.9446 -0.968503 59.9979 0.0216641 69.1342 3.80605C78.2705 7.59043 86.0794 13.9991 91.5735 22.2215C97.0676 30.444 100 40.111 100 50V100Z" fill="#CC676C"></path><path d="M100 74.9999C99.9993 68.3697 97.365 62.0114 92.6763 57.3234C87.9877 52.6355 81.6289 50.0021 74.9987 50.0024C68.3686 50.0028 62.01 52.6368 57.3219 57.3252C52.6337 62.0136 50 68.3722 50 75.0024C50 81.6326 52.6337 87.9913 57.3219 92.6797C62.01 97.368 68.3686 100.002 74.9987 100.002C81.6289 100.003 87.9877 97.3693 92.6763 92.6814C97.365 87.9935 99.9993 81.6351 100 75.0049V74.9999Z" fill="#FFA99A"></path></g><defs><clipPath id="clip0_118_44"><rect width="100" height="100" fill="white"></rect></clipPath></defs></svg>