<svg xmlns="http://www.w3.org/2000/svg" width="225" height="225" viewBox="0 0 225 225" fill="none"><g clip-path="url(#clip0_8_7)"><path d="M-1.5676e-05 112.5C-1.5676e-05 90.2499 6.598 68.4992 18.9597 49.9987C31.3213 31.4981 48.8914 17.0787 69.4481 8.56388C90.0048 0.049019 112.625 -2.17886 134.448 2.16198C156.27 6.50282 176.316 17.2174 192.049 32.9508C207.783 48.6842 218.497 68.7298 222.838 90.5527C227.179 112.376 224.951 134.996 216.436 155.552C207.922 176.109 193.502 193.679 175.002 206.041C156.501 218.402 134.75 225 112.5 225H-1.5676e-05V112.5Z" fill="#FFA99A"></path></g><defs><clipPath id="clip0_8_7"><rect width="225" height="225" fill="white" transform="translate(225 0.000305176) rotate(90)"></rect></clipPath></defs></svg>